<svg width="16" height="16" viewBox="0 0 16 16" fill="none" xmlns="http://www.w3.org/2000/svg">
<g clip-path="url(#clip0_994_1393)">
<path d="M8 10C9.10457 10 10 9.10457 10 8C10 6.89543 9.10457 6 8 6C6.89543 6 6 6.89543 6 8C6 9.10457 6.89543 10 8 10Z" stroke="white" stroke-opacity="0.8" stroke-width="1.5" stroke-linecap="round" stroke-linejoin="round"/>
<path d="M12.9333 9.99984C12.8445 10.2009 12.8181 10.424 12.8573 10.6402C12.8965 10.8565 12.9996 11.0561 13.1533 11.2132L13.1933 11.2532C13.3173 11.377 13.4156 11.5241 13.4827 11.6859C13.5498 11.8478 13.5843 12.0213 13.5843 12.1965C13.5843 12.3717 13.5498 12.5452 13.4827 12.7071C13.4156 12.869 13.3173 13.016 13.1933 13.1398C13.0695 13.2638 12.9224 13.3622 12.7605 13.4293C12.5987 13.4963 12.4252 13.5309 12.25 13.5309C12.0747 13.5309 11.9012 13.4963 11.7394 13.4293C11.5775 13.3622 11.4305 13.2638 11.3066 13.1398L11.2666 13.0998C11.1095 12.9461 10.9099 12.843 10.6937 12.8038C10.4774 12.7646 10.2544 12.7911 10.0533 12.8798C9.85611 12.9643 9.68795 13.1047 9.5695 13.2835C9.45105 13.4624 9.38748 13.672 9.38663 13.8865V13.9998C9.38663 14.3535 9.24615 14.6926 8.9961 14.9426C8.74605 15.1927 8.40691 15.3332 8.05329 15.3332C7.69967 15.3332 7.36053 15.1927 7.11048 14.9426C6.86044 14.6926 6.71996 14.3535 6.71996 13.9998V13.9398C6.7148 13.7192 6.64337 13.5052 6.51497 13.3256C6.38656 13.1461 6.20712 13.0094 5.99996 12.9332C5.79888 12.8444 5.57583 12.818 5.35957 12.8572C5.1433 12.8964 4.94375 12.9995 4.78663 13.1532L4.74663 13.1932C4.6228 13.3171 4.47574 13.4155 4.31388 13.4826C4.15202 13.5497 3.97851 13.5842 3.80329 13.5842C3.62807 13.5842 3.45457 13.5497 3.29271 13.4826C3.13084 13.4155 2.98379 13.3171 2.85996 13.1932C2.73599 13.0693 2.63765 12.9223 2.57055 12.7604C2.50345 12.5986 2.46891 12.4251 2.46891 12.2498C2.46891 12.0746 2.50345 11.9011 2.57055 11.7393C2.63765 11.5774 2.73599 11.4303 2.85996 11.3065L2.89996 11.2665C3.05365 11.1094 3.15675 10.9098 3.19596 10.6936C3.23517 10.4773 3.2087 10.2542 3.11996 10.0532C3.03545 9.85599 2.89513 9.68783 2.71627 9.56938C2.53741 9.45093 2.32782 9.38736 2.11329 9.3865H1.99996C1.64634 9.3865 1.3072 9.24603 1.05715 8.99598C0.807102 8.74593 0.666626 8.40679 0.666626 8.05317C0.666626 7.69955 0.807102 7.36041 1.05715 7.11036C1.3072 6.86031 1.64634 6.71984 1.99996 6.71984H2.05996C2.28062 6.71468 2.49463 6.64325 2.67416 6.51484C2.85369 6.38644 2.99044 6.20699 3.06663 5.99984C3.15537 5.79876 3.18184 5.57571 3.14263 5.35945C3.10342 5.14318 3.00032 4.94362 2.84663 4.7865L2.80663 4.7465C2.68266 4.62267 2.58431 4.47562 2.51721 4.31376C2.45011 4.15189 2.41558 3.97839 2.41558 3.80317C2.41558 3.62795 2.45011 3.45445 2.51721 3.29258C2.58431 3.13072 2.68266 2.98367 2.80663 2.85984C2.93046 2.73587 3.07751 2.63752 3.23937 2.57042C3.40124 2.50333 3.57474 2.46879 3.74996 2.46879C3.92518 2.46879 4.09868 2.50333 4.26055 2.57042C4.42241 2.63752 4.56946 2.73587 4.69329 2.85984L4.73329 2.89984C4.89041 3.05353 5.08997 3.15663 5.30623 3.19584C5.5225 3.23505 5.74555 3.20858 5.94663 3.11984H5.99996C6.19714 3.03533 6.3653 2.89501 6.48375 2.71615C6.60221 2.53729 6.66577 2.3277 6.66663 2.11317V1.99984C6.66663 1.64622 6.8071 1.30708 7.05715 1.05703C7.3072 0.80698 7.64634 0.666504 7.99996 0.666504C8.35358 0.666504 8.69272 0.80698 8.94277 1.05703C9.19282 1.30708 9.33329 1.64622 9.33329 1.99984V2.05984C9.33415 2.27436 9.39771 2.48395 9.51616 2.66281C9.63461 2.84167 9.80278 2.982 9.99996 3.0665C10.201 3.15525 10.4241 3.18172 10.6404 3.14251C10.8566 3.10329 11.0562 3.0002 11.2133 2.8465L11.2533 2.8065C11.3771 2.68254 11.5242 2.58419 11.686 2.51709C11.8479 2.44999 12.0214 2.41546 12.1966 2.41546C12.3718 2.41546 12.5453 2.44999 12.7072 2.51709C12.8691 2.58419 13.0161 2.68254 13.14 2.8065C13.2639 2.93033 13.3623 3.07739 13.4294 3.23925C13.4965 3.40111 13.531 3.57462 13.531 3.74984C13.531 3.92506 13.4965 4.09856 13.4294 4.26042C13.3623 4.42229 13.2639 4.56934 13.14 4.69317L13.1 4.73317C12.9463 4.89029 12.8432 5.08985 12.804 5.30611C12.7647 5.52237 12.7912 5.74543 12.88 5.9465V5.99984C12.9645 6.19702 13.1048 6.36518 13.2836 6.48363C13.4625 6.60208 13.6721 6.66565 13.8866 6.6665H14C14.3536 6.6665 14.6927 6.80698 14.9428 7.05703C15.1928 7.30708 15.3333 7.64622 15.3333 7.99984C15.3333 8.35346 15.1928 8.6926 14.9428 8.94265C14.6927 9.19269 14.3536 9.33317 14 9.33317H13.94C13.7254 9.33403 13.5158 9.39759 13.337 9.51604C13.1581 9.63449 13.0178 9.80266 12.9333 9.99984Z" stroke="white" stroke-opacity="0.8" stroke-width="1.5" stroke-linecap="round" stroke-linejoin="round"/>
</g>
<defs>
<clipPath id="clip0_994_1393">
<rect width="16" height="16" fill="white"/>
</clipPath>
</defs>
</svg>
